<svg id="kity_svg_6" xmlns="http://www.w3.org/2000/svg" xmlns:xlink="http://www.w3.org/1999/xlink" version="1.1" width="740" height="565" style="background: rgb(251, 251, 251); visibility: visible;" viewBox="0 0 740 565"><defs id="kity_defs_7"><linearGradient id="kity_linearGradient_17" x1="0" y1="0" x2="0" y2="1"><stop id="kity_stop_18" offset="0" stop-color="rgb(255, 255, 255)"></stop><stop id="kity_stop_19" offset="1" stop-color="rgb(204, 204, 204)"></stop></linearGradient><marker id="kity_marker_2" orient="auto" refX="6" refY="0" viewBox="-7 -7 14 14" markerWidth="7" markerHeight="7" markerUnits="userSpaceOnUse"><path id="kity_path_3" fill="rgb(115, 161, 191)" stroke="none" d="M6,0A6,6,0,1,1,-6,0A6,6,0,1,1,6,0"></path></marker></defs><g id="kity_g_8"><g id="minder1" text-rendering="optimize-speed"><g id="minder_connect_group1"><path id="kity_path_31" fill="none" stroke="rgb(115, 161, 191)" stroke-width="1" d="M379.50002543628216,261.50000880658627A157,204,0,0,1,536.5000254362822,57.500008806586266"></path><path id="kity_path_33" fill="none" stroke="rgb(115, 161, 191)" stroke-width="1" d="M607.5000254362822,57.500008806586266C622.5000254362822,57.500008806586266,622.5000254362822,45.500008806586266,637.5000254362822,45.500008806586266L720.5000254362822,45.500008806586266"></path><path id="kity_path_35" fill="none" stroke="rgb(115, 161, 191)" stroke-width="1" d="M607.5000254362822,57.500008806586266C622.5000254362822,57.500008806586266,622.5000254362822,97.50000880658627,637.5000254362822,97.50000880658627L697.5000254362822,97.50000880658627"></path><path id="kity_path_37" fill="none" stroke="rgb(115, 161, 191)" stroke-width="1" d="M379.50002543628216,261.50000880658627A166,218,0,0,0,545.5000254362822,479.50000880658627"></path><path id="kity_path_39" fill="none" stroke="rgb(115, 161, 191)" stroke-width="1" d="M616.5000254362822,479.50000880658627C631.5000254362822,479.50000880658627,631.5000254362822,441.50000880658627,646.5000254362822,441.50000880658627L713.5000254362822,441.50000880658627"></path><path id="kity_path_41" fill="none" stroke="rgb(115, 161, 191)" stroke-width="1" d="M616.5000254362822,479.50000880658627C631.5000254362822,479.50000880658627,631.5000254362822,493.50000880658627,646.5000254362822,493.50000880658627L713.5000254362822,493.50000880658627"></path><path id="kity_path_43" fill="none" stroke="rgb(115, 161, 191)" stroke-width="1" d="M616.5000254362822,479.50000880658627C631.5000254362822,479.50000880658627,631.5000254362822,545.5000088065863,646.5000254362822,545.5000088065863L713.5000254362822,545.5000088065863"></path><path id="kity_path_45" fill="none" stroke="rgb(115, 161, 191)" stroke-width="1" d="M379.50002543628216,261.50000880658627A175,0,0,0,1,204.50002543628216,261.50000880658627"></path><path id="kity_path_47" fill="none" stroke="rgb(115, 161, 191)" stroke-width="1" d="M133.50002543628216,261.50000880658627C118.50002543628216,261.50000880658627,118.50002543628216,223.50000880658627,103.50002543628216,223.50000880658627L20.500025436282158,223.50000880658627"></path><path id="kity_path_49" fill="none" stroke="rgb(115, 161, 191)" stroke-width="1" d="M133.50002543628216,261.50000880658627C118.50002543628216,261.50000880658627,118.50002543628216,275.50000880658627,103.50002543628216,275.50000880658627L43.50002543628216,275.50000880658627"></path><path id="kity_path_51" fill="none" stroke="rgb(115, 161, 191)" stroke-width="1" d="M133.50002543628216,261.50000880658627C118.50002543628216,261.50000880658627,118.50002543628216,327.50000880658627,103.50002543628216,327.50000880658627L36.50002543628216,327.50000880658627"></path></g><g id="minder_node1"><path id="node_outline1" fill="rgb(115, 161, 191)" stroke="rgb(115, 161, 191)" d="M327.50002543628216,241.50000880658627h104a5,5,0,0,1,5,5v30a5,5,0,0,1,-5,5h-104a5,5,0,0,1,-5,-5v-30a5,5,0,0,1,5,-5z" stroke-width="3"></path><g id="node_text1" fill="white"><text id="kity_text_22" text-rendering="inherit" font-size="16" dy=".8em" y="251.10000863969327" x="346.50002543628216">C++对象</text></g></g><g id="kity_g_12"><path id="kity_path_13" fill="none" stroke="none" d="M346.50002543628216,261.50000880658627h0v0h0z"></path></g><g id="kity_g_14"><path id="kity_path_15" fill="none" stroke="none" d="M346.50002543628216,261.50000880658627h0v0h0z"></path><path id="kity_path_16" fill="none" stroke="none"></path></g><g id="minder_node2"><g id="node_expander3" style="cursor: pointer;"><path id="kity_path_92" fill="white" stroke="gray" d="M537.5000309497118,57.5000027269125A6,6,0,1,1,525.5000309497118,57.5000027269125A6,6,0,1,1,537.5000309497118,57.5000027269125"></path><path id="kity_path_93" fill="none" stroke="gray" d="M527.0000309497118,57.5000027269125L536.0000309497118,57.5000027269125"></path></g><path id="node_outline4" fill="rgb(238, 243, 246)" stroke="rgb(115, 161, 191)" d="M541.5000317543745,44.5000027269125h63a3,3,0,0,1,3,3v20a3,3,0,0,1,-3,3h-63a3,3,0,0,1,-3,-3v-20a3,3,0,0,1,3,-3z" stroke-width="1"></path><g id="node_text4" fill="black"><text id="kity_text_57" text-rendering="inherit" font-size="14" dy=".8em" y="48.400002759695056" x="558.5000317543745">成员</text></g></g><g id="minder_node3"><g id="node_expander1" style="cursor: pointer;" display="none"><path id="kity_path_86" fill="white" stroke="gray" d="M647.5000342279673,31.500001952052116A6,6,0,1,1,635.5000342279673,31.500001952052116A6,6,0,1,1,647.5000342279673,31.500001952052116"></path><path id="kity_path_87" fill="none" stroke="gray"></path></g><path id="node_outline2" fill="none" stroke="none" d="M652.5000347048044,20.500001952052116h63a5,5,0,0,1,5,5v12a5,5,0,0,1,-5,5h-63a5,5,0,0,1,-5,-5v-12a5,5,0,0,1,5,-5z" stroke-width="3"></path><g id="node_text2" fill="black"><text id="kity_text_53" text-rendering="inherit" font-size="12" dy=".8em" y="23.700002025564515" x="657.5000347048044">nonstatic</text></g></g><g id="minder_node4"><g id="node_expander2" style="cursor: pointer;" display="none"><path id="kity_path_89" fill="white" stroke="gray" d="M647.5000342279673,83.50000350177288A6,6,0,1,1,635.5000342279673,83.50000350177288A6,6,0,1,1,647.5000342279673,83.50000350177288"></path><path id="kity_path_90" fill="none" stroke="gray"></path></g><path id="node_outline3" fill="none" stroke="none" d="M652.5000347048044,72.50000350177288h40a5,5,0,0,1,5,5v12a5,5,0,0,1,-5,5h-40a5,5,0,0,1,-5,-5v-12a5,5,0,0,1,5,-5z" stroke-width="3"></path><g id="node_text3" fill="black"><text id="kity_text_55" text-rendering="inherit" font-size="12" dy=".8em" y="75.70000357528528" x="657.5000347048044">static</text></g></g><g id="minder_node5"><g id="node_expander7" style="cursor: pointer;"><path id="kity_path_104" fill="white" stroke="gray" d="M546.5000312179327,479.50001530349255A6,6,0,1,1,534.5000312179327,479.50001530349255A6,6,0,1,1,546.5000312179327,479.50001530349255"></path><path id="kity_path_105" fill="none" stroke="gray" d="M536.0000312179327,479.50001530349255L545.0000312179327,479.50001530349255"></path></g><path id="node_outline8" fill="rgb(238, 243, 246)" stroke="rgb(115, 161, 191)" d="M550.5000320225954,466.50001530349255h63a3,3,0,0,1,3,3v20a3,3,0,0,1,-3,3h-63a3,3,0,0,1,-3,-3v-20a3,3,0,0,1,3,-3z" stroke-width="1"></path><g id="node_text8" fill="black"><text id="kity_text_65" text-rendering="inherit" font-size="14" dy=".8em" y="470.4000153362751" x="567.5000320225954">继承</text></g></g><g id="minder_node6"><g id="node_expander4" style="cursor: pointer;" display="none"><path id="kity_path_95" fill="white" stroke="gray" d="M656.5000344961882,427.5000137537718A6,6,0,1,1,644.5000344961882,427.5000137537718A6,6,0,1,1,656.5000344961882,427.5000137537718"></path><path id="kity_path_96" fill="none" stroke="gray"></path></g><path id="node_outline5" fill="none" stroke="none" d="M661.5000349730253,416.5000137537718h47a5,5,0,0,1,5,5v12a5,5,0,0,1,-5,5h-47a5,5,0,0,1,-5,-5v-12a5,5,0,0,1,5,-5z" stroke-width="3"></path><g id="node_text5" fill="black"><text id="kity_text_59" text-rendering="inherit" font-size="12" dy=".8em" y="419.7000138272842" x="666.5000349730253">单继承</text></g></g><g id="minder_node7"><g id="node_expander5" style="cursor: pointer;" display="none"><path id="kity_path_98" fill="white" stroke="gray" d="M656.5000344961882,479.50001530349255A6,6,0,1,1,644.5000344961882,479.50001530349255A6,6,0,1,1,656.5000344961882,479.50001530349255"></path><path id="kity_path_99" fill="none" stroke="gray"></path></g><path id="node_outline6" fill="none" stroke="none" d="M661.5000349730253,468.50001530349255h47a5,5,0,0,1,5,5v12a5,5,0,0,1,-5,5h-47a5,5,0,0,1,-5,-5v-12a5,5,0,0,1,5,-5z" stroke-width="3"></path><g id="node_text6" fill="black"><text id="kity_text_61" text-rendering="inherit" font-size="12" dy=".8em" y="471.70001537700495" x="666.5000349730253">多继承</text></g></g><g id="minder_node8"><g id="node_expander6" style="cursor: pointer;" display="none"><path id="kity_path_101" fill="white" stroke="gray" d="M656.5000344961882,531.5000168532133A6,6,0,1,1,644.5000344961882,531.5000168532133A6,6,0,1,1,656.5000344961882,531.5000168532133"></path><path id="kity_path_102" fill="none" stroke="gray"></path></g><path id="node_outline7" fill="none" stroke="none" d="M661.5000349730253,520.5000168532133h47a5,5,0,0,1,5,5v12a5,5,0,0,1,-5,5h-47a5,5,0,0,1,-5,-5v-12a5,5,0,0,1,5,-5z" stroke-width="3"></path><g id="node_text7" fill="black"><text id="kity_text_63" text-rendering="inherit" font-size="12" dy=".8em" y="523.7000169267258" x="666.5000349730253">虚继承</text></g></g><g id="minder_node9"><g id="node_expander11" style="cursor: pointer;"><path id="kity_path_116" fill="white" stroke="gray" d="M215.500021353364,261.50000880658627A6,6,0,1,1,203.500021353364,261.50000880658627A6,6,0,1,1,215.500021353364,261.50000880658627"></path><path id="kity_path_117" fill="none" stroke="gray" d="M205.000021353364,261.50000880658627L214.000021353364,261.50000880658627"></path></g><path id="node_outline12" fill="rgb(238, 243, 246)" stroke="rgb(115, 161, 191)" d="M136.50001968443394,248.50000880658627h63a3,3,0,0,1,3,3v20a3,3,0,0,1,-3,3h-63a3,3,0,0,1,-3,-3v-20a3,3,0,0,1,3,-3z" stroke-width="1"></path><g id="node_text12" fill="black"><text id="kity_text_73" text-rendering="inherit" font-size="14" dy=".8em" y="252.4000088393688" x="153.50001968443394">方法</text></g></g><g id="minder_node10"><g id="node_expander8" style="cursor: pointer;" display="none"><path id="kity_path_107" fill="white" stroke="gray" d="M105.50001807510853,209.5000072568655A6,6,0,1,1,93.50001807510853,209.5000072568655A6,6,0,1,1,105.50001807510853,209.5000072568655"></path><path id="kity_path_108" fill="none" stroke="gray"></path></g><path id="node_outline9" fill="none" stroke="none" d="M25.500016018748283,198.5000072568655h63a5,5,0,0,1,5,5v12a5,5,0,0,1,-5,5h-63a5,5,0,0,1,-5,-5v-12a5,5,0,0,1,5,-5z" stroke-width="3"></path><g id="node_text9" fill="black"><text id="kity_text_67" text-rendering="inherit" font-size="12" dy=".8em" y="201.7000073303779" x="30.500016018748283">nonstatic</text></g></g><g id="minder_node11"><g id="node_expander9" style="cursor: pointer;" display="none"><path id="kity_path_110" fill="white" stroke="gray" d="M105.50001807510853,261.50000880658627A6,6,0,1,1,93.50001807510853,261.50000880658627A6,6,0,1,1,105.50001807510853,261.50000880658627"></path><path id="kity_path_111" fill="none" stroke="gray"></path></g><path id="node_outline10" fill="none" stroke="none" d="M48.5000167042017,250.50000880658627h40a5,5,0,0,1,5,5v12a5,5,0,0,1,-5,5h-40a5,5,0,0,1,-5,-5v-12a5,5,0,0,1,5,-5z" stroke-width="3"></path><g id="node_text10" fill="black"><text id="kity_text_69" text-rendering="inherit" font-size="12" dy=".8em" y="253.70000888009866" x="53.5000167042017">static</text></g></g><g id="minder_node12"><g id="node_expander10" style="cursor: pointer;" display="none"><path id="kity_path_113" fill="white" stroke="gray" d="M105.50001807510853,313.50001035630703A6,6,0,1,1,93.50001807510853,313.50001035630703A6,6,0,1,1,105.50001807510853,313.50001035630703"></path><path id="kity_path_114" fill="none" stroke="gray"></path></g><path id="node_outline11" fill="none" stroke="none" d="M41.50001649558544,302.50001035630703h47a5,5,0,0,1,5,5v12a5,5,0,0,1,-5,5h-47a5,5,0,0,1,-5,-5v-12a5,5,0,0,1,5,-5z" stroke-width="3"></path><g id="node_text11" fill="black"><text id="kity_text_71" text-rendering="inherit" font-size="12" dy=".8em" y="305.70001042981943" x="46.50001649558544">virtual</text></g></g></g></g></svg>